<svg version="1.1" xmlns="http://www.w3.org/2000/svg" width="70" height="70" viewBox="0 0 70 70">
<path fill="currentColor" d="M35.078 7.999a13 13 0 0 0-9.192 22.192A13 13 0 1 0 44.27 11.807a12.915 12.915 0 0 0-9.192-3.808zm0-3a16 16 0 1 1 0 32 16 16 0 0 1 0-32z"></path><path fill="currentColor" d="M9.578 65l-.105-3h51.034a.556.556 0 0 0 .49-.418c.02-.212.02-.426 0-.638a26 26 0 0 0-14.439-21.259l-.808-.4a25.7 25.7 0 0 0-10.4-2.284h-.439a25.848 25.848 0 0 0-10.2 2.11l-1.2.601a26.169 26.169 0 0 0-9.975 8.728 25.786 25.786 0 0 0-4.368 12.48c-.027.9 0 1.03.452 1.084l-.04 3m0 0a3.098 3.098 0 0 1-3.433-2.86 10.13 10.13 0 0 1 0-1.867 27.39 27.39 0 0 1 4.906-13.525 29.18 29.18 0 0 1 11.124-9.732v-.044A28.82 28.82 0 0 1 35.013 34h.022a.018.018 0 0 0 .009.003l.01-.003h.024a28.681 28.681 0 0 1 12.81 2.977v.018a28.999 28.999 0 0 1 16.1 23.714 9.53 9.53 0 0 1 0 1 3.348 3.348 0 0 1-3.41 3.3c-.159 0-.47-.013-.472 0H10.05s-.259-.003-.472-.009l.002.005z"></path>
</svg>