<svg version="1.1" xmlns="http://www.w3.org/2000/svg" width="70" height="70" viewBox="0 0 70 70">
<path  fill="currentColor" d="M2.77 64.493c-.458-1.157-.238-1.595-.156-3.956a30.518 30.518 0 0 1 22.623-26.97 16 16 0 1 1 15.529-.007 30.304 30.304 0 0 1 5.706 2.137 1.5 1.5 0 1 1-1.328 2.69 27.22 27.22 0 0 0-12.143-2.818 27.612 27.612 0 0 0-27.4 25.312c-.053.58-.053.663-.063 1A1.886 1.886 0 0 0 7.62 63.55l1.037.017h38.257a1.5 1.5 0 1 1 0 3H6.676s-.075.005-.205.005a3.975 3.975 0 0 1-3.701-2.08zm21.037-54.117a13.004 13.004 0 0 0 3.01 20.632A13.258 13.258 0 0 0 33 32.568a13 13 0 1 0-9.193-22.192z"></path>
</svg>